<svg width="56" height="56" viewBox="0 0 56 56" fill="none" xmlns="http://www.w3.org/2000/svg">
<path fill-rule="evenodd" clip-rule="evenodd" d="M54 28C54 42.3594 42.3594 54 28 54C13.6406 54 2 42.3594 2 28C2 13.6406 13.6406 2 28 2C42.3594 2 54 13.6406 54 28ZM56 28C56 43.464 43.464 56 28 56C12.536 56 0 43.464 0 28C0 12.536 12.536 0 28 0C43.464 0 56 12.536 56 28ZM37 18L28 18C27.4477 18 27 18.4477 27 19C27 19.5523 27.4477 20 28 20H34.5858L19.2929 35.2929L20.7071 36.7071L36 21.4142V28C36 28.5523 36.4477 29 37 29C37.5523 29 38 28.5523 38 28V19C38 18.4477 37.5523 18 37 18Z" fill="#1E50AB"/>
</svg>
