<svg width="51" height="51" viewBox="0 0 51 51" fill="none" xmlns="http://www.w3.org/2000/svg">
<path d="M50.3926 35.7535C50.3926 44.925 44.925 50.3926 35.7535 50.3926H32.7552C31.3694 50.3926 30.2355 49.2587 30.2355 47.8729V33.3347C30.2355 32.6544 30.7899 32.0749 31.4702 32.0749L35.9047 31.9993C36.2575 31.9741 36.5598 31.7221 36.6354 31.3694L37.5173 26.5569C37.5929 26.1033 37.2401 25.675 36.7614 25.675L31.3946 25.7506C30.6891 25.7506 30.1348 25.1963 30.1096 24.516L30.0088 18.3429C30.0088 17.9398 30.3363 17.587 30.7647 17.587L36.8118 17.4862C37.2401 17.4862 37.5677 17.1587 37.5677 16.7304L37.4669 10.6832C37.4669 10.2549 37.1393 9.92734 36.711 9.92734L29.908 10.0281C25.7254 10.1037 22.3995 13.5304 22.4751 17.713L22.6011 24.642C22.6263 25.3475 22.0719 25.9018 21.3664 25.927L18.3429 25.9774C17.9146 25.9774 17.587 26.3049 17.587 26.7333L17.6626 31.5205C17.6626 31.9489 17.9901 32.2764 18.4185 32.2764L21.442 32.226C22.1475 32.226 22.7019 32.7804 22.727 33.4607L22.9538 47.8225C22.979 49.2335 21.8452 50.3926 20.4342 50.3926H14.639C5.46759 50.3926 0 44.925 0 35.7283V14.639C0 5.46759 5.46759 0 14.639 0H35.7535C44.925 0 50.3926 5.46759 50.3926 14.639V35.7535Z" fill="#1E50AB"/>
</svg>
