<svg width="51" height="51" viewBox="0 0 51 51" fill="none" xmlns="http://www.w3.org/2000/svg">
<path d="M35.7714 0H14.6463C5.47032 0 0 5.47032 0 14.6463V35.7461C0 44.9474 5.47032 50.4177 14.6463 50.4177H35.7461C44.9222 50.4177 50.3925 44.9474 50.3925 35.7714V14.6463C50.4177 5.47032 44.9474 0 35.7714 0ZM25.2088 34.9899C19.8142 34.9899 15.4278 30.6035 15.4278 25.2088C15.4278 19.8142 19.8142 15.4278 25.2088 15.4278C30.6035 15.4278 34.9899 19.8142 34.9899 25.2088C34.9899 30.6035 30.6035 34.9899 25.2088 34.9899ZM40.1325 12.3019C40.0064 12.6044 39.83 12.8817 39.6031 13.1338C39.351 13.3607 39.0737 13.5372 38.7712 13.6632C38.4687 13.7892 38.141 13.8649 37.8133 13.8649C37.1326 13.8649 36.5024 13.6128 36.0234 13.1338C35.7966 12.8817 35.6201 12.6044 35.4941 12.3019C35.368 11.9994 35.2924 11.6717 35.2924 11.344C35.2924 11.0163 35.368 10.6885 35.4941 10.386C35.6201 10.0583 35.7966 9.80624 36.0234 9.55415C36.6032 8.97435 37.4856 8.69705 38.2922 8.87351C38.4687 8.89872 38.6199 8.94914 38.7712 9.02477C38.9225 9.07518 39.0737 9.15081 39.225 9.25165C39.351 9.32727 39.4771 9.45332 39.6031 9.55415C39.83 9.80624 40.0064 10.0583 40.1325 10.386C40.2585 10.6885 40.3342 11.0163 40.3342 11.344C40.3342 11.6717 40.2585 11.9994 40.1325 12.3019Z" fill="#1E50AB"/>
</svg>
