<?xml version="1.0" encoding="UTF-8"?> <svg xmlns="http://www.w3.org/2000/svg" width="33" height="33" viewBox="0 0 33 33" fill="#fff"><g clip-path="url(#clip0)"><path d="M32.8656 14.0739L27.3422 6.89899C27.1378 6.63362 26.7649 6.56816 26.4822 6.74793L22.9161 9.01587H18.2652C18.205 9.01587 18.1451 9.02871 18.0872 9.04558L14.4811 10.0836L10.7393 9.06018L7.10345 6.74793C6.82549 6.57118 6.45942 6.63111 6.25272 6.88741L0.143516 14.4546C-0.0760278 14.7265 -0.0397729 15.1236 0.225089 15.3514L3.4271 18.107L6.2998 21.9783C5.45964 22.8733 5.47601 24.285 6.35015 25.1594C6.73763 25.5466 7.23034 25.7654 7.73715 25.8162C7.71953 25.931 7.71047 26.0476 7.71047 26.1659C7.71047 26.7767 7.94839 27.351 8.38017 27.7828C8.81221 28.2149 9.3865 28.4528 9.99729 28.4528C10.0056 28.4528 10.0137 28.4523 10.0217 28.452C10.0215 28.4676 10.0207 28.483 10.0207 28.4986C10.0207 29.1094 10.2586 29.6837 10.6904 30.1157C11.1225 30.5475 11.6967 30.7854 12.3075 30.7854C12.4281 30.7854 12.5475 30.7756 12.6645 30.7575C12.7141 31.2661 12.9334 31.761 13.3222 32.1498C13.7678 32.5957 14.3534 32.8185 14.939 32.8185C15.5247 32.8185 16.1103 32.5957 16.5562 32.1498L16.9059 31.8001L17.0526 31.9184C17.4948 32.3467 18.0688 32.5607 18.6428 32.5607C19.2284 32.5607 19.8141 32.3378 20.2597 31.892C20.7146 31.437 20.9375 30.8365 20.9281 30.2391C21.5253 30.2481 22.1261 30.0256 22.581 29.5709C23.0355 29.1162 23.2583 28.5162 23.2495 27.919C23.8716 27.9288 24.4617 27.6899 24.9021 27.2496C25.357 26.7946 25.5798 26.1941 25.5705 25.5967C26.1682 25.6058 26.7685 25.3832 27.2234 24.9282C27.9999 24.1518 28.0998 22.9516 27.524 22.0656L29.6215 17.6727L32.7749 14.9592C33.0355 14.7348 33.0753 14.3461 32.8656 14.0739ZM6.89649 8.15004L9.51087 9.81247L3.82364 16.7412L1.54462 14.7796L6.89649 8.15004ZM7.26534 22.8403L8.05438 22.0513C8.0783 22.0274 8.10348 22.0047 8.12916 21.9835C8.28349 21.8577 8.47031 21.7826 8.6682 21.7648C8.67374 21.7643 8.67953 21.7643 8.68507 21.764C8.71327 21.7617 8.74146 21.7602 8.76991 21.7605C9.04031 21.7643 9.29158 21.8748 9.47789 22.0714C9.84346 22.4579 9.82382 23.0893 9.43408 23.4791L8.66895 24.2442C8.28198 24.6312 7.65231 24.6312 7.26534 24.2442C6.87837 23.857 6.87837 23.2273 7.26534 22.8403ZM9.29536 26.8676C9.10779 26.6803 9.00456 26.4311 9.00456 26.1659C9.00456 25.9008 9.10779 25.6516 9.29536 25.464L10.8254 23.934C11.1184 23.6409 11.5792 23.5606 11.9538 23.7391C12.34 23.9232 12.5573 24.3424 12.5006 24.7641C12.4704 24.9892 12.3657 25.2012 12.2051 25.362L10.6992 26.8676C10.5117 27.0552 10.2624 27.1584 9.99729 27.1584C9.73218 27.1584 9.48293 27.0552 9.29536 26.8676ZM11.6056 29.2003C11.418 29.013 11.3148 28.7637 11.3148 28.4986C11.3148 28.2335 11.418 27.9842 11.6056 27.7967L13.1354 26.2667C13.4488 25.9535 13.9516 25.886 14.3353 26.1093C14.6858 26.3132 14.8693 26.7135 14.8091 27.1124C14.7761 27.3316 14.6719 27.5378 14.5151 27.6947L13.0095 29.2003C12.8219 29.3879 12.5726 29.4911 12.3075 29.4911C12.0424 29.4911 11.7932 29.3879 11.6056 29.2003ZM14.2371 31.2346C13.8501 30.8476 13.8501 30.2179 14.2371 29.831L15.0261 29.0419C15.0501 29.018 15.075 28.9956 15.1007 28.9744C15.1014 28.9739 15.1019 28.9734 15.1024 28.9729C15.2308 28.8687 15.3816 28.799 15.5425 28.7685C15.5463 28.768 15.5501 28.7675 15.5539 28.767C15.5816 28.762 15.6098 28.7579 15.6379 28.7554C15.6493 28.7544 15.6606 28.7544 15.6722 28.7536C15.6954 28.7524 15.7183 28.7509 15.7417 28.7511C16.0118 28.7549 16.2633 28.8652 16.4497 29.0621C16.4726 29.0862 16.494 29.1114 16.5136 29.1373C16.8112 29.5263 16.7712 30.1041 16.4018 30.4737L15.6407 31.2348C15.2537 31.6218 14.6241 31.6216 14.2371 31.2346ZM26.3082 24.0131C25.9212 24.4003 25.2916 24.4 24.9046 24.0131C24.8905 23.999 24.8756 23.9859 24.8605 23.9735L20.6998 19.769C20.4483 19.5149 20.0386 19.5129 19.7846 19.7644C19.5306 20.0157 19.5286 20.4253 19.7798 20.6794L23.9856 24.929C23.9861 24.9295 23.9866 24.93 23.9872 24.9305C24.3741 25.3175 24.3741 25.9474 23.9872 26.3344C23.7996 26.522 23.5503 26.6252 23.2852 26.6252C23.0198 26.6252 22.7706 26.522 22.5833 26.3344L19.7697 23.4916C19.5185 23.2376 19.1089 23.2356 18.8548 23.4869C18.6008 23.7384 18.5988 24.148 18.85 24.402L21.6205 27.2012C21.6346 27.2189 21.6497 27.2357 21.6658 27.2518C22.0528 27.6388 22.0528 28.2687 21.6658 28.6557C21.2786 29.0427 20.6487 29.0424 20.2617 28.6555L18.7262 27.1038C18.4746 26.8498 18.065 26.8475 17.811 27.099C17.5569 27.3503 17.5549 27.7599 17.8062 28.0139L19.2989 29.522C19.313 29.5397 19.3281 29.5568 19.3445 29.5729C19.7315 29.9599 19.7315 30.5898 19.3445 30.9768C18.9575 31.364 18.3279 31.3637 17.9409 30.9768C17.8963 30.9322 17.844 30.898 17.7941 30.8597C17.7518 30.8275 17.7407 30.8051 17.7619 30.7537C17.7833 30.7016 17.8153 30.6545 17.8367 30.6021C17.8603 30.5437 17.8795 30.4836 17.8981 30.4231C17.9973 30.1034 18.0265 29.7595 17.9819 29.4276C17.8963 28.7909 17.5461 28.2164 17.0154 27.8528C16.7286 27.6567 16.3968 27.528 16.0529 27.4797C16.2195 26.7445 16.0194 25.9474 15.4987 25.3973C15.0702 24.9446 14.4914 24.6906 13.8688 24.682C13.8461 24.6818 13.8234 24.6818 13.8005 24.682C13.8144 24.0878 13.5984 23.4974 13.1887 23.0646C12.76 22.612 12.1811 22.3579 11.5588 22.3494C11.3737 22.3468 11.1869 22.3665 11.0066 22.408C10.9296 21.872 10.6594 21.376 10.2503 21.0213C9.84371 20.6693 9.33237 20.4739 8.78779 20.4664C8.21451 20.4581 7.6513 20.6696 7.22556 21.054L4.72422 17.6836L10.7083 10.3933L12.6154 10.915L10.1247 15.3101C9.82357 15.8416 9.74754 16.4584 9.91043 17.0471C10.0733 17.636 10.4555 18.1259 10.987 18.427C11.0202 18.4459 11.0537 18.4638 11.0877 18.4809C11.0902 18.4822 11.0927 18.4834 11.0955 18.4847C11.1849 18.5293 11.2768 18.5675 11.3699 18.5998C11.8037 18.7501 12.2723 18.7664 12.7242 18.6415C13.3129 18.4787 13.8028 18.0962 14.1039 17.565L15.7225 14.7086L18.6126 14.9136L26.3085 22.6092C26.6952 22.9964 26.6952 23.6261 26.3082 24.0131ZM26.5764 21.047L19.3568 13.8277C19.3433 13.8139 19.3289 13.8008 19.314 13.7884C19.2101 13.7018 19.0812 13.6494 18.9452 13.6399L15.4066 13.3889C15.1619 13.372 14.9186 13.5022 14.7978 13.7154L12.978 16.927C12.8473 17.1576 12.6346 17.3235 12.379 17.3943C12.1237 17.465 11.8559 17.4318 11.625 17.3011C11.3944 17.1705 11.2284 16.9577 11.1577 16.7022C11.087 16.4466 11.1199 16.1787 11.2509 15.9481L13.6802 11.6607L14.6646 11.3775C14.6712 11.3755 14.6774 11.3729 14.684 11.3709L18.3581 10.31H22.7973L28.3392 17.355L26.5764 21.047ZM29.187 16.3394L24.0619 9.82078L26.6776 8.15734L31.4665 14.3778L29.187 16.3394Z" fill="#fff"></path><path d="M19.9923 7.80079C20.158 7.80079 20.3237 7.7376 20.45 7.61121L24.8701 3.19113C25.1229 2.93835 25.1229 2.52872 24.8701 2.27595C24.6173 2.02317 24.2077 2.02317 23.9549 2.27595L19.5349 6.69602C19.2821 6.9488 19.2821 7.35843 19.5349 7.61121C19.6612 7.7376 19.8269 7.80079 19.9923 7.80079Z" fill="#9D9D9D"></path><path d="M12.55 7.61121C12.6764 7.7376 12.8421 7.80079 13.0077 7.80079C13.1731 7.80079 13.3388 7.7376 13.4652 7.61121C13.718 7.35843 13.718 6.9488 13.4652 6.69602L9.04511 2.27595C8.79233 2.02317 8.3827 2.02317 8.12992 2.27595C7.87714 2.52872 7.87714 2.93835 8.12992 3.19113L12.55 7.61121Z" fill="#9D9D9D"></path><path d="M16.5 7.80082C16.8573 7.80082 17.147 7.51103 17.147 7.15377V3.4958C17.147 3.13854 16.8573 2.84875 16.5 2.84875C16.1427 2.84875 15.8529 3.13854 15.8529 3.4958V7.15377C15.8529 7.51103 16.1427 7.80082 16.5 7.80082Z" fill="#9D9D9D"></path><path d="M15.9028 1.15058C16.0055 1.39958 16.2616 1.56298 16.5317 1.54888C16.7986 1.53504 17.033 1.35477 17.1156 1.10073C17.1984 0.844683 17.1083 0.552881 16.8938 0.389734C16.675 0.223063 16.3699 0.213747 16.141 0.365061C15.8857 0.533747 15.7868 0.869608 15.9028 1.15058Z" fill="#9D9D9D"></path></g><defs><clipPath id="clip0"><rect width="33" height="33" fill="#fff"></rect></clipPath></defs></svg> 