<svg width="121" height="120" viewBox="0 0 121 120" fill="none" xmlns="http://www.w3.org/2000/svg">
<g opacity="0.9">
<path d="M60.25 120C93.3871 120 120.25 93.1371 120.25 60C120.25 26.8629 93.3871 0 60.25 0C27.1129 0 0.25 26.8629 0.25 60C0.25 93.1371 27.1129 120 60.25 120Z" fill="#1E50AB"/>
<path fill-rule="evenodd" clip-rule="evenodd" d="M27.2679 54.1597V61.0549V67.9501C27.2679 81.0069 39.7379 84.8212 39.7379 84.8212V61.0549V37.2886C39.7379 37.2886 27.2679 41.1029 27.2679 54.1597ZM77.4412 40.5157C70.1059 34.9409 62.9907 40.589 62.9907 40.589L42.5253 61.0545L62.9907 81.52C62.9907 81.52 70.1059 87.1681 77.4412 81.5933L56.9024 61.0545L77.4412 40.5157ZM80.4487 40.589C80.4487 40.589 87.564 34.9409 94.8993 40.5157L74.3604 61.0545L94.8993 81.5933C87.564 87.1681 80.4487 81.52 80.4487 81.52L59.9833 61.0545L80.4487 40.589Z" fill="white"/>
</g>
</svg>
