<svg width="52" height="29" viewBox="0 0 52 29" fill="none" xmlns="http://www.w3.org/2000/svg">
<g clip-path="url(#clip0_251_2505)">
<g filter="url(#filter0_d_251_2505)">
<path d="M15.9541 21.6731C15.9541 18.2425 18.7731 15.4614 22.2506 15.4614H49.6684C50.0547 15.4614 50.3679 15.7704 50.3679 16.1516V19.6025C50.3679 23.0332 47.5489 25.8142 44.0716 25.8142H16.6537C16.2673 25.8142 15.9541 25.5052 15.9541 25.124V21.6731Z" fill="#A854D4"/>
<path d="M1.81641 11.0128V2.21289H3.39052V11.0128C3.39052 11.4269 3.43716 11.7662 3.53044 12.0308C3.63538 12.2839 3.79279 12.4679 4.00266 12.583C4.21254 12.6865 4.41659 12.7555 4.61482 12.79C4.81304 12.8245 5.07539 12.8418 5.40189 12.8418V14.2912C4.09595 14.2912 3.16898 14.0438 2.62095 13.5492C2.08459 13.0546 1.81641 12.2091 1.81641 11.0128Z" fill="white"/>
<path d="M8.80412 14.2911H7.26499V7.45825H5.83081L6.53039 6.00885H8.80412V14.2911ZM7.19501 4.28339C7.04343 4.08784 6.96766 3.87503 6.96766 3.64497C6.96766 3.4149 7.04343 3.20785 7.19501 3.0238C7.34659 2.82824 7.57981 2.73047 7.89462 2.73047C8.20944 2.73047 8.44266 2.82824 8.59424 3.0238C8.74582 3.20785 8.82159 3.4149 8.82159 3.64497C8.82159 3.87503 8.74582 4.08784 8.59424 4.28339C8.44266 4.46744 8.20944 4.55946 7.89462 4.55946C7.57981 4.55946 7.34659 4.46744 7.19501 4.28339Z" fill="white"/>
<path d="M11.1418 2.21289H12.716V10.1501C12.716 11.0588 12.9492 11.7662 13.4156 12.2724C13.8936 12.767 14.5466 13.0143 15.3744 13.0143C16.2373 13.0143 16.9136 12.7728 17.4033 12.2896C17.893 11.795 18.1379 11.0818 18.1379 10.1501C18.1379 9.26431 17.8697 8.56836 17.3334 8.06223C16.8087 7.5446 16.1149 7.28578 15.252 7.28578C14.5175 7.28578 13.882 7.49284 13.3456 7.90694V6.35401C13.9869 6.00892 14.6807 5.83639 15.4269 5.83639C16.6629 5.83639 17.6832 6.23325 18.4877 7.02693C19.3039 7.80916 19.712 8.8502 19.712 10.1501C19.712 11.5189 19.2864 12.583 18.4353 13.3422C17.5957 14.0899 16.5346 14.4637 15.252 14.4637C14.0277 14.4637 13.0366 14.0726 12.2787 13.2904C11.5208 12.5082 11.1418 11.4614 11.1418 10.1501V2.21289Z" fill="white"/>
<path d="M25.6543 5.83659C27.6365 5.91709 28.6276 6.72806 28.6276 8.26949C28.6276 10.1905 27.3508 11.151 24.7973 11.151H24.0802V9.82241H24.9197C25.7009 9.82241 26.2431 9.70739 26.5463 9.47731C26.8495 9.23574 27.001 8.83892 27.001 8.28677C27.001 7.93014 26.8669 7.66557 26.5988 7.49304C26.3305 7.30898 25.9866 7.21695 25.5668 7.21695C24.739 7.21695 24.086 7.50454 23.6079 8.07968C23.1415 8.65485 22.9083 9.34505 22.9083 10.1503C22.9083 11.0015 23.159 11.6917 23.6604 12.2208C24.1734 12.7499 24.8381 13.0145 25.6543 13.0145C26.3889 13.0145 26.9893 12.8362 27.4558 12.4796L28.5052 13.4977C27.7006 14.1418 26.7503 14.4639 25.6543 14.4639C24.325 14.4639 23.264 14.0786 22.4711 13.3079C21.6782 12.5371 21.2817 11.5421 21.2817 10.3228C21.2817 8.96543 21.6724 7.86688 22.4536 7.02714C23.2348 6.18744 24.3017 5.79057 25.6543 5.83659Z" fill="white"/>
<path d="M30.1116 14.291V9.5805C30.1116 8.25766 30.3623 7.34317 30.8637 6.83703C31.1085 6.58397 31.4059 6.39416 31.7557 6.2676C32.1055 6.14109 32.4086 6.0663 32.6652 6.04331C32.9333 6.02028 33.2948 6.00879 33.7495 6.00879H35.2887V7.45819H33.4347C33.2015 7.45819 33.0208 7.46393 32.8925 7.47543C32.7642 7.48696 32.6127 7.52719 32.4378 7.59623C32.2629 7.66524 32.1113 7.77451 31.983 7.92405C31.7615 8.20015 31.6507 8.7523 31.6507 9.5805V14.291H30.1116Z" fill="white"/>
<path d="M35.5469 7.45822L38.6776 4.36963V6.00882H41.0388V7.45822H38.6776V11.0127C38.6776 11.4153 38.7417 11.7489 38.87 12.0135C39.0099 12.278 39.2082 12.4678 39.4647 12.5829C39.7212 12.6864 39.9601 12.7554 40.1818 12.7899C40.4152 12.8244 40.7006 12.8417 41.0388 12.8417V14.2911C39.6977 14.2911 38.7068 14.038 38.0655 13.5319C37.4242 13.0257 37.1035 12.186 37.1035 11.0127V7.45822H35.5469Z" fill="white"/>
<path d="M42.4441 6.00879H43.983V10.3397C43.983 11.2715 44.1288 11.9214 44.4205 12.2895C44.7118 12.6576 45.2482 12.8416 46.0294 12.8416H47.8658V6.00879H49.4051V13.8769C49.4051 15.3148 49.0203 16.3961 48.2505 17.1208C47.4928 17.857 46.2976 18.2251 44.6652 18.2251H43.4059V16.7757H44.5077C46.6416 16.7757 47.761 15.9475 47.8658 14.291H46.3969C44.8693 14.291 43.8258 14.0265 43.2659 13.4973C42.7178 12.9682 42.4441 11.8926 42.4441 10.2707V6.00879Z" fill="white"/>
<path d="M20.0228 20.8391L22.2808 21.6918V22.4905L19.4011 21.2368V20.7077L20.0228 20.8391ZM22.2808 20.1415L20.0228 21.0076L19.4011 21.1256V20.5965L22.2808 19.3462V20.1415Z" fill="white"/>
<path d="M26.329 21.493H26.9849C26.9507 21.803 26.8608 22.0805 26.715 22.3254C26.5693 22.5702 26.3632 22.7646 26.0967 22.9084C25.8302 23.0499 25.4978 23.1207 25.0992 23.1207C24.8077 23.1207 24.5424 23.0668 24.3033 22.9589C24.0665 22.8511 23.8626 22.6983 23.6918 22.5006C23.521 22.3007 23.3889 22.0614 23.2956 21.7828C23.2045 21.502 23.1589 21.1897 23.1589 20.8459V20.3572C23.1589 20.0135 23.2045 19.7023 23.2956 19.4237C23.3889 19.1429 23.5222 18.9025 23.6952 18.7026C23.8706 18.5026 24.0813 18.3487 24.3272 18.2409C24.5732 18.133 24.8499 18.0791 25.1573 18.0791C25.5331 18.0791 25.8508 18.1488 26.1104 18.288C26.37 18.4273 26.5715 18.6206 26.715 18.8677C26.8608 19.1126 26.9507 19.3968 26.9849 19.7203H26.329C26.2971 19.4912 26.2379 19.2946 26.1514 19.1306C26.0648 18.9643 25.9419 18.8363 25.7824 18.7464C25.623 18.6565 25.4146 18.6116 25.1573 18.6116C24.9364 18.6116 24.7417 18.6531 24.5732 18.7362C24.4069 18.8194 24.2668 18.9374 24.153 19.0901C24.0414 19.2429 23.9572 19.426 23.9002 19.6394C23.8433 19.8529 23.8148 20.0899 23.8148 20.3505V20.8459C23.8148 21.0863 23.8399 21.3121 23.8899 21.5233C23.9423 21.7345 24.0209 21.9199 24.1257 22.0793C24.2304 22.2389 24.3637 22.3647 24.5253 22.4568C24.687 22.5467 24.8783 22.5916 25.0992 22.5916C25.3793 22.5916 25.6025 22.5478 25.7688 22.4602C25.935 22.3726 26.0603 22.2467 26.1446 22.0827C26.2311 21.9187 26.2926 21.7221 26.329 21.493Z" fill="white"/>
<path d="M27.6199 21.2704V21.1929C27.6199 20.93 27.6586 20.6863 27.736 20.4616C27.8134 20.2347 27.925 20.0381 28.0708 19.8718C28.2165 19.7033 28.393 19.573 28.6003 19.4809C28.8075 19.3865 29.0398 19.3394 29.2972 19.3394C29.5568 19.3394 29.7902 19.3865 29.9974 19.4809C30.207 19.573 30.3846 19.7033 30.5303 19.8718C30.6784 20.0381 30.7911 20.2347 30.8685 20.4616C30.946 20.6863 30.9847 20.93 30.9847 21.1929V21.2704C30.9847 21.5333 30.946 21.777 30.8685 22.0017C30.7911 22.2264 30.6784 22.4229 30.5303 22.5915C30.3846 22.7577 30.2081 22.888 30.0008 22.9824C29.7959 23.0745 29.5636 23.1206 29.304 23.1206C29.0444 23.1206 28.8109 23.0745 28.6037 22.9824C28.3965 22.888 28.2188 22.7577 28.0708 22.5915C27.925 22.4229 27.8134 22.2264 27.736 22.0017C27.6586 21.777 27.6199 21.5333 27.6199 21.2704ZM28.2518 21.1929V21.2704C28.2518 21.4524 28.2735 21.6243 28.3167 21.786C28.36 21.9455 28.4249 22.0871 28.5115 22.2107C28.6003 22.3342 28.7107 22.4319 28.8428 22.5038C28.9749 22.5735 29.1286 22.6083 29.304 22.6083C29.4771 22.6083 29.6285 22.5735 29.7583 22.5038C29.8904 22.4319 29.9997 22.3342 30.0863 22.2107C30.1728 22.0871 30.2377 21.9455 30.281 21.786C30.3265 21.6243 30.3493 21.4524 30.3493 21.2704V21.1929C30.3493 21.0132 30.3265 20.8435 30.281 20.684C30.2377 20.5223 30.1717 20.3796 30.0828 20.256C29.9963 20.1302 29.887 20.0313 29.7549 19.9594C29.6251 19.8875 29.4725 19.8516 29.2972 19.8516C29.1241 19.8516 28.9715 19.8875 28.8394 19.9594C28.7096 20.0313 28.6003 20.1302 28.5115 20.256C28.4249 20.3796 28.36 20.5223 28.3167 20.684C28.2735 20.8435 28.2518 21.0132 28.2518 21.1929Z" fill="white"/>
<path d="M34.1067 22.3456V17.877H34.7421V23.0534H34.1614L34.1067 22.3456ZM31.6199 21.2706V21.1998C31.6199 20.9212 31.654 20.6685 31.7223 20.4416C31.793 20.2124 31.892 20.0158 32.0195 19.8518C32.1493 19.6878 32.3031 19.562 32.4807 19.4743C32.6606 19.3845 32.861 19.3395 33.0819 19.3395C33.3142 19.3395 33.5169 19.38 33.69 19.4608C33.8653 19.5395 33.986 19.6077 34.1067 19.7604C34.1067 20.1113 34.1067 20.2214 34.1067 20.3893C34.1773 20.6028 34.24 20.7901 34.2673 21.0597V21.4178C34.2422 21.6851 34.1067 21.9712 34.1067 22.3456C34.1341 22.5917 34.1105 22.3946 34.1341 22.6557C34.0134 22.8062 33.8653 22.9219 33.69 23.0028C33.5146 23.0814 33.3097 23.1207 33.0751 23.1207C32.8587 23.1207 32.6606 23.0747 32.4807 22.9826C32.3031 22.8905 32.1493 22.7613 32.0195 22.595C31.892 22.4288 31.793 22.2333 31.7223 22.0086C31.654 21.7817 31.6199 21.5357 31.6199 21.2706ZM32.2553 21.1998V21.2706C32.2553 21.4526 32.2735 21.6233 32.3099 21.7828C32.3486 21.9423 32.4078 22.0828 32.4875 22.2041C32.5673 22.3254 32.6686 22.4209 32.7916 22.4906C32.9146 22.5579 33.0614 22.5917 33.2322 22.5917C33.4418 22.5917 33.6137 22.5478 33.748 22.4602C33.8847 22.3726 33.994 22.2569 34.076 22.1131C34.158 21.9693 34.1922 21.8323 34.2377 21.6639L34.2673 21.0597C34.24 20.9361 34.1883 20.5925 34.1359 20.4779C34.0858 20.3611 34.0316 20.2551 33.9496 20.1652C33.8699 20.0731 33.7708 20.0001 33.6524 19.9462C33.5362 19.8922 33.3985 19.8653 33.2391 19.8653C33.066 19.8653 32.9168 19.9012 32.7916 19.9731C32.6686 20.0428 32.5673 20.1394 32.4875 20.2629C32.4078 20.3843 32.3486 20.5258 32.3099 20.6876C32.2735 20.8471 32.2553 21.0178 32.2553 21.1998Z" fill="white"/>
<path d="M37.2603 23.1206C37.0029 23.1206 36.7695 23.0779 36.56 22.9925C36.3527 22.9049 36.174 22.7824 36.0237 22.6252C35.8756 22.4679 35.7617 22.2814 35.6821 22.0657C35.6023 21.85 35.5625 21.6141 35.5625 21.358V21.2165C35.5625 20.9199 35.6069 20.6559 35.6957 20.4245C35.7845 20.1909 35.9052 19.9931 36.0578 19.8314C36.2104 19.6696 36.3835 19.5472 36.577 19.4641C36.7706 19.3809 36.971 19.3394 37.1783 19.3394C37.4424 19.3394 37.6702 19.3843 37.8615 19.4742C38.0551 19.564 38.2133 19.6899 38.3363 19.8516C38.4593 20.0111 38.5504 20.1998 38.6096 20.4178C38.6688 20.6335 38.6984 20.8694 38.6984 21.1255V21.4052H35.9383V20.8963H38.0664V20.8492C38.0573 20.6874 38.0232 20.5301 37.964 20.3774C37.907 20.2246 37.8159 20.0987 37.6907 19.9999C37.5654 19.901 37.3946 19.8516 37.1783 19.8516C37.0348 19.8516 36.9027 19.8819 36.782 19.9426C36.6613 20.001 36.5577 20.0886 36.4712 20.2055C36.3846 20.3223 36.3174 20.4649 36.2696 20.6335C36.2218 20.8019 36.1979 20.9963 36.1979 21.2165V21.358C36.1979 21.531 36.2218 21.6939 36.2696 21.8467C36.3197 21.9972 36.3915 22.1298 36.4848 22.2444C36.5805 22.3589 36.6955 22.4488 36.8299 22.5139C36.9665 22.5791 37.1213 22.6117 37.2944 22.6117C37.5176 22.6117 37.7066 22.5667 37.8615 22.4769C38.0164 22.387 38.1519 22.2668 38.268 22.1163L38.6506 22.4162C38.5709 22.5353 38.4695 22.6487 38.3466 22.7566C38.2236 22.8644 38.0721 22.9521 37.8922 23.0195C37.7146 23.0868 37.5039 23.1206 37.2603 23.1206Z" fill="white"/>
<path d="M41.6835 20.9739L39.3845 20.128V19.3428L42.336 20.5931V21.1255L41.6835 20.9739ZM39.3845 21.7018L41.6905 20.8391L42.336 20.7043V21.2334L39.3845 22.487V21.7018Z" fill="white"/>
</g>
</g>
<defs>
<filter id="filter0_d_251_2505" x="0.0290809" y="2.21289" width="142.126" height="27.1762" filterUnits="userSpaceOnUse" color-interpolation-filters="sRGB">
<feFlood flood-opacity="0" result="BackgroundImageFix"/>
<feColorMatrix in="SourceAlpha" type="matrix" values="0 0 0 0 0 0 0 0 0 0 0 0 0 0 0 0 0 0 127 0" result="hardAlpha"/>
<feOffset dy="1.78733"/>
<feGaussianBlur stdDeviation="0.893663"/>
<feComposite in2="hardAlpha" operator="out"/>
<feColorMatrix type="matrix" values="0 0 0 0 0 0 0 0 0 0 0 0 0 0 0 0 0 0 0.25 0"/>
<feBlend mode="normal" in2="BackgroundImageFix" result="effect1_dropShadow_251_2505"/>
<feBlend mode="normal" in="SourceGraphic" in2="effect1_dropShadow_251_2505" result="shape"/>
</filter>
<clipPath id="clip0_251_2505">
<rect width="52" height="27" fill="white" transform="translate(0 1.9751)"/>
</clipPath>
</defs>
</svg>
